<svg xmlns="http://www.w3.org/2000/svg" xmlns:xlink="http://www.w3.org/1999/xlink" width="300" zoomAndPan="magnify" viewBox="0 0 224.87999 225" height="300" preserveAspectRatio="xMidYMid meet" version="1.0"><defs><clipPath id="3599ed76ef"><path d="M 73 43.121094 L 147 43.121094 L 147 185.546875 L 73 185.546875 Z M 73 43.121094 " clip-rule="nonzero"/></clipPath><clipPath id="abc0f02066"><path d="M 6.679688 62 L 114 62 L 114 166 L 6.679688 166 Z M 6.679688 62 " clip-rule="nonzero"/></clipPath></defs><path fill="#04143c" d="M 32.535156 80.191406 C 29.359375 80.191406 26.78125 82.769531 26.78125 85.949219 L 26.78125 142.476562 C 26.78125 145.65625 29.359375 148.230469 32.535156 148.230469 L 55.359375 148.230469 C 58.539062 148.230469 61.117188 145.65625 61.117188 142.476562 L 61.117188 85.949219 C 61.117188 82.769531 58.539062 80.191406 55.359375 80.191406 L 32.535156 80.191406 " fill-opacity="1" fill-rule="nonzero"/><g clip-path="url(#3599ed76ef)"><path fill="#04143c" d="M 146.660156 102.023438 L 116.488281 102.023438 L 124.6875 72.753906 C 126.0625 67.839844 124.96875 71.738281 132.992188 43.097656 L 73.757812 126.402344 L 103.933594 126.402344 L 87.425781 185.328125 L 101.519531 165.507812 C 106.109375 159.054688 141.59375 109.148438 146.660156 102.023438 " fill-opacity="1" fill-rule="nonzero"/></g><g clip-path="url(#abc0f02066)"><path fill="#04143c" d="M 91.589844 155.667969 L 22.558594 155.667969 C 19.378906 155.667969 16.800781 153.089844 16.800781 149.910156 L 16.800781 78.511719 C 16.800781 75.332031 19.378906 72.753906 22.558594 72.753906 L 107.003906 72.753906 L 114 62.917969 L 17.277344 62.917969 C 11.582031 62.917969 6.960938 67.535156 6.960938 73.234375 L 6.960938 155.191406 C 6.960938 160.886719 11.582031 165.507812 17.277344 165.507812 L 88.835938 165.507812 L 91.589844 155.667969 " fill-opacity="1" fill-rule="nonzero"/></g><path fill="#04143c" d="M 212.152344 91.214844 L 212.152344 73.234375 C 212.152344 67.535156 207.53125 62.917969 201.835938 62.917969 L 131.582031 62.917969 L 128.828125 72.753906 L 196.558594 72.753906 C 199.738281 72.753906 202.3125 75.332031 202.3125 78.511719 L 202.3125 149.910156 C 202.3125 153.089844 199.738281 155.667969 196.558594 155.667969 L 113.414062 155.667969 L 106.417969 165.507812 L 201.835938 165.507812 C 207.53125 165.507812 212.152344 160.886719 212.152344 155.191406 L 212.152344 137.210938 C 215.332031 137.210938 217.910156 134.628906 217.910156 131.453125 L 217.910156 96.972656 C 217.910156 93.792969 215.332031 91.214844 212.152344 91.214844 " fill-opacity="1" fill-rule="nonzero"/></svg>