<svg xmlns="http://www.w3.org/2000/svg" xmlns:xlink="http://www.w3.org/1999/xlink" width="500" zoomAndPan="magnify" viewBox="0 0 375 112.499997" height="150" preserveAspectRatio="xMidYMid meet" version="1.0"><defs><clipPath id="7a36d290de"><path d="M 26.039062 45.5 L 348.605469 45.5 L 348.605469 111.957031 L 26.039062 111.957031 Z M 26.039062 45.5 " clip-rule="nonzero"/></clipPath><clipPath id="0450457854"><path d="M 177.316406 9 L 197.476562 9 L 197.476562 46.824219 L 177.316406 46.824219 Z M 177.316406 9 " clip-rule="nonzero"/></clipPath></defs><g clip-path="url(#7a36d290de)"><path fill="#04143c" d="M 162.214844 366.011719 C 160.984375 365.460938 158.628906 364.976562 156.980469 364.933594 C 152.554688 364.816406 125.023438 356.140625 119.757812 353.203125 C 117.253906 351.808594 111.179688 348.464844 106.253906 345.777344 C 93.027344 338.558594 75.003906 323.140625 63.414062 309.128906 C 53.503906 297.148438 38.527344 271.695312 36.820312 263.933594 C 36.410156 262.058594 34.582031 255.921875 32.757812 250.304688 C 27.335938 233.566406 25.539062 207.980469 28.15625 184.664062 C 31.035156 158.988281 44.339844 126.882812 59.691406 108.566406 C 62.527344 105.1875 65.851562 101.160156 67.082031 99.621094 C 69.960938 96.023438 77.492188 88.492188 81.089844 85.613281 C 82.628906 84.382812 86.65625 81.070312 90.035156 78.25 C 93.414062 75.433594 97.945312 72.078125 100.097656 70.796875 C 111.605469 63.957031 125.878906 56.648438 130.316406 55.332031 C 160.34375 46.40625 165.734375 45.476562 187.394531 45.492188 C 203.660156 45.503906 219.917969 47.214844 227.121094 49.675781 C 229.585938 50.515625 235.382812 52.3125 240 53.664062 C 248.3125 56.097656 259.652344 61.371094 271.105469 68.128906 C 274.363281 70.050781 277.332031 71.621094 277.699219 71.621094 C 278.066406 71.621094 281.441406 74.277344 285.203125 77.519531 C 288.964844 80.761719 294.449219 85.335938 297.390625 87.691406 C 304.542969 93.414062 321.929688 115.054688 327.191406 124.789062 C 329.519531 129.09375 332.691406 134.886719 334.242188 137.65625 C 337.28125 143.089844 344.585938 165.214844 346.511719 174.828125 C 348.636719 185.417969 348.949219 222.566406 347.011719 233.859375 C 340.15625 273.765625 319.742188 307.859375 286.890625 334.261719 C 278.707031 340.839844 275.460938 342.871094 258.625 351.945312 C 250.558594 356.292969 234.726562 361.683594 221.53125 364.570312 C 212.558594 366.535156 165.917969 367.667969 162.214844 366.011719 Z M 214.015625 348.039062 C 228.71875 340.574219 245.226562 323.316406 255.042969 305.148438 C 257.320312 300.933594 258.910156 296.78125 258.578125 295.917969 C 257.761719 293.785156 195.335938 293.566406 193.214844 295.6875 C 191.765625 297.136719 191.1875 351.488281 192.605469 352.902344 C 194.371094 354.667969 206.289062 351.960938 214.011719 348.039062 Z M 178.441406 325.121094 C 178.75 310.347656 178.570312 297.316406 178.046875 296.15625 C 177.207031 294.308594 176.257812 294.136719 170.328125 294.757812 C 166.609375 295.144531 152.558594 295.464844 139.105469 295.464844 C 115.640625 295.464844 114.648438 295.550781 114.648438 297.636719 C 114.648438 298.832031 115.097656 300.085938 115.644531 300.425781 C 116.195312 300.761719 118.015625 303.6875 119.695312 306.925781 C 131.558594 329.796875 158.667969 352.898438 172.851562 352.222656 L 177.886719 351.984375 L 178.445312 325.121094 Z M 253.765625 339.921875 C 256.96875 337.90625 262.019531 335.011719 264.992188 333.488281 C 277.414062 327.125 307.550781 298.824219 305.480469 295.472656 C 304.414062 293.746094 276.363281 293.996094 274.992188 295.742188 C 274.386719 296.511719 271.253906 302.253906 268.03125 308.5 C 264.808594 314.746094 258.191406 324.964844 253.324219 331.210938 C 248.460938 337.453125 244.480469 342.792969 244.480469 343.074219 C 244.480469 344.570312 248.613281 343.167969 253.765625 339.921875 Z M 125.699219 338.164062 C 124.855469 337.027344 121.089844 332.050781 117.335938 327.097656 C 113.578125 322.148438 108.355469 313.886719 105.726562 308.742188 C 98.597656 294.78125 99.699219 295.464844 84.257812 295.464844 C 73.113281 295.464844 71 295.734375 71 297.171875 C 71 299.375 90.824219 319.296875 99.445312 325.757812 C 113.828125 336.539062 130.261719 344.304688 125.699219 338.164062 Z M 92.878906 280.828125 C 93.289062 280.164062 92.839844 277.519531 91.878906 274.953125 C 89.039062 267.34375 83.613281 237.566406 82.898438 225.652344 C 82.535156 219.574219 81.660156 213.90625 80.957031 213.0625 C 79.96875 211.871094 75.597656 211.527344 61.632812 211.539062 C 51.703125 211.550781 42.839844 212.023438 41.9375 212.597656 C 37.125 215.640625 44.796875 252.175781 54.035156 270.222656 C 60.242188 282.351562 59.625 282.035156 77.089844 282.035156 C 86.628906 282.035156 92.40625 281.59375 92.878906 280.828125 Z M 178.492188 279.117188 C 179.15625 277.367188 179.480469 263.371094 179.300781 244.140625 L 179.003906 212.082031 L 138.714844 211.8125 C 116.503906 211.664062 97.722656 211.988281 96.859375 212.539062 C 95.546875 213.378906 95.496094 215.839844 96.546875 227.917969 C 98.554688 251.03125 105.128906 278.445312 109.300781 281.089844 C 110.089844 281.589844 125.730469 282.007812 144.058594 282.015625 L 177.382812 282.035156 L 178.488281 279.117188 Z M 266.152344 278.394531 C 272.332031 268.523438 281.050781 214.625 276.878906 212.050781 C 275.238281 211.035156 194.914062 211.394531 193.910156 212.421875 C 192.863281 213.492188 191.367188 274.253906 192.292969 277.953125 L 193.039062 280.914062 L 264.574219 280.914062 L 266.148438 278.398438 Z M 316.847656 278.394531 C 321.375 273.320312 325.164062 265.070312 329.40625 251.050781 C 334.523438 234.136719 337.496094 212.996094 334.980469 211.40625 C 332.46875 209.8125 295.585938 210.167969 293.414062 211.804688 C 291.972656 212.886719 291.296875 216.433594 290.402344 227.597656 C 289.148438 243.3125 285.4375 264.789062 282.972656 270.597656 C 282.113281 272.621094 281.414062 275.769531 281.414062 277.59375 L 281.414062 280.914062 L 298.007812 280.914062 C 313.800781 280.914062 314.707031 280.792969 316.847656 278.394531 Z M 81.472656 196.867188 C 82.207031 195.8125 82.953125 191.253906 83.125 186.730469 C 83.566406 175.074219 89.460938 143.03125 92.117188 137.859375 C 94.269531 133.664062 92.660156 133.179688 76.503906 133.179688 C 62.511719 133.179688 60.703125 133.40625 58.726562 135.382812 C 55.515625 138.59375 51.421875 147.179688 47.984375 157.902344 C 46.324219 163.082031 44.28125 169.46875 43.4375 172.097656 C 41.074219 179.492188 40.132812 195.40625 41.929688 197.570312 C 43.1875 199.085938 46.128906 199.304688 61.765625 199.066406 C 77.625 198.820312 80.3125 198.519531 81.472656 196.867188 Z M 179.5625 166.757812 C 179.871094 149.828125 179.683594 135.351562 179.144531 134.582031 C 178.398438 133.511719 170.0625 133.183594 143.890625 133.199219 C 125.035156 133.207031 109.074219 133.585938 108.414062 134.039062 C 106.355469 135.453125 103.347656 144.457031 100.589844 157.464844 C 97.714844 171.023438 95.0625 193.90625 96.0625 196.511719 C 96.589844 197.878906 102.863281 198.078125 137.839844 197.828125 L 179.003906 197.535156 Z M 276.679688 196.695312 C 279.488281 193.246094 273.753906 153.867188 268.320312 139.339844 L 266.230469 133.742188 L 193.550781 133.742188 L 192.992188 164.324219 C 192.683594 181.144531 192.835938 195.625 193.328125 196.5 C 194.566406 198.710938 274.886719 198.898438 276.679688 196.695312 Z M 334.285156 196.695312 C 335.917969 195.441406 335.957031 194.210938 334.683594 184.664062 C 332.28125 166.617188 321.40625 137.050781 315.640625 132.863281 C 313.757812 131.496094 282.722656 132.542969 281.242188 134.019531 C 280.296875 134.964844 280.457031 136.308594 281.871094 139.285156 C 282.914062 141.480469 284.492188 147.425781 285.378906 152.5 C 286.265625 157.570312 287.515625 163.484375 288.148438 165.636719 C 288.785156 167.792969 289.625 175.265625 290.011719 182.242188 C 290.492188 190.890625 291.222656 195.433594 292.300781 196.511719 C 294.449219 198.660156 331.519531 198.824219 334.285156 196.695312 Z M 96.96875 119.472656 C 97.945312 118.703125 101.429688 112.785156 104.714844 106.320312 C 108.003906 99.859375 114.378906 89.835938 118.886719 84.054688 C 123.558594 78.054688 126.660156 73.117188 126.101562 72.558594 C 124.828125 71.28125 106.316406 81.945312 97.449219 89.0625 C 84.5 99.453125 68.257812 116.816406 69.191406 119.261719 C 70.019531 121.414062 94.273438 121.597656 96.96875 119.472656 Z M 179.175781 118.488281 C 180.367188 117.503906 180.683594 111.269531 180.683594 88.859375 L 180.683594 60.476562 L 177.886719 59.773438 C 174.203125 58.851562 171.09375 59.707031 161.070312 64.398438 C 150.738281 69.238281 138.117188 80.054688 129.34375 91.589844 C 121.164062 102.347656 112.496094 118.421875 114.28125 119.523438 C 116.449219 120.867188 177.484375 119.894531 179.175781 118.488281 Z M 259.492188 118.78125 C 260.410156 117.300781 250.886719 100.328125 244.023438 91.210938 C 235.382812 79.730469 224.273438 70.179688 213.457031 64.933594 C 203.035156 59.878906 199.621094 58.835938 196.609375 59.792969 C 194.601562 60.429688 194.417969 62.238281 193.703125 88.566406 C 193.144531 109.039062 193.285156 117.078125 194.222656 118.207031 C 195.257812 119.453125 201.605469 119.75 227.199219 119.75 C 244.628906 119.75 259.164062 119.3125 259.492188 118.78125 Z M 306.503906 118.777344 C 307.363281 117.382812 294.265625 102.398438 285.792969 95.085938 C 274.640625 85.460938 270.300781 82.347656 261.484375 77.65625 L 249.734375 71.398438 C 247.765625 70.351562 245.792969 69.472656 245.351562 69.441406 C 244.046875 69.355469 248.457031 76.089844 255.367188 84.75 C 258.917969 89.199219 264.84375 98.628906 268.539062 105.703125 C 272.230469 112.777344 276.007812 118.773438 276.933594 119.027344 C 280.261719 119.949219 305.914062 119.730469 306.503906 118.777344 Z M 306.503906 118.777344 " fill-opacity="1" fill-rule="nonzero"/></g><g clip-path="url(#0450457854)"><path fill="#04143c" d="M 196.214844 14.1875 C 196.285156 15.691406 196.265625 16.480469 196.335938 17.980469 C 196.3125 18.171875 196.246094 18.34375 196.144531 18.507812 C 196.050781 18.648438 195.878906 18.683594 195.644531 18.730469 L 195.585938 18.742188 C 194.351562 18.636719 193.015625 18.613281 191.5 18.625 C 189.984375 18.636719 188.589844 18.625 187.277344 18.71875 C 186.820312 18.746094 186.363281 18.796875 185.914062 18.878906 C 185.539062 18.9375 185.207031 19.085938 184.917969 19.328125 C 184.640625 19.527344 184.453125 19.789062 184.355469 20.113281 C 184.246094 20.558594 184.257812 21 184.390625 21.441406 C 184.480469 21.875 184.699219 22.230469 185.039062 22.515625 C 185.621094 22.933594 186.242188 23.289062 186.898438 23.582031 C 188.90625 24.496094 189.921875 25.011719 191.929688 25.925781 C 193.457031 26.546875 194.742188 27.488281 195.792969 28.757812 C 196.578125 29.738281 197.109375 30.839844 197.390625 32.0625 C 197.679688 33.253906 197.726562 34.457031 197.539062 35.667969 C 197.363281 36.71875 196.953125 37.671875 196.316406 38.527344 C 195.664062 39.394531 194.859375 40.089844 193.90625 40.609375 C 192.84375 41.199219 191.710938 41.574219 190.507812 41.742188 C 190.566406 43.183594 190.539062 43.917969 190.597656 45.359375 C 190.574219 45.566406 190.488281 45.746094 190.34375 45.898438 C 190.210938 46.042969 190.050781 46.136719 189.859375 46.179688 C 188.125 46.300781 187.289062 46.355469 185.554688 46.472656 C 185.355469 46.503906 185.179688 46.457031 185.023438 46.335938 C 184.863281 46.210938 184.777344 46.050781 184.757812 45.851562 L 184.734375 45.734375 C 184.6875 44.351562 184.671875 43.6875 184.625 42.304688 C 183.730469 42.335938 182.839844 42.320312 181.949219 42.253906 C 181.148438 42.179688 180.34375 42.105469 179.652344 42.007812 C 179.476562 42.015625 179.320312 41.96875 179.179688 41.855469 C 179.042969 41.746094 178.957031 41.605469 178.929688 41.429688 L 178.902344 41.3125 C 178.832031 39.8125 178.851562 39.023438 178.78125 37.523438 C 178.804688 37.332031 178.871094 37.15625 178.972656 36.996094 C 179.101562 36.835938 179.265625 36.761719 179.472656 36.769531 L 179.53125 36.757812 C 180.058594 36.796875 180.585938 36.808594 181.113281 36.792969 C 181.777344 36.777344 182.4375 36.757812 183.171875 36.789062 C 183.894531 36.757812 184.570312 36.800781 185.21875 36.722656 C 185.882812 36.707031 186.476562 36.644531 186.90625 36.675781 C 187.5 36.613281 188.035156 36.5625 188.558594 36.453125 C 189.003906 36.359375 189.410156 36.171875 189.773438 35.894531 C 190.078125 35.625 190.289062 35.300781 190.414062 34.914062 C 190.527344 34.367188 190.515625 33.824219 190.378906 33.285156 C 190.285156 32.832031 190.0625 32.457031 189.71875 32.148438 C 189.15625 31.679688 188.546875 31.277344 187.890625 30.953125 L 182.457031 28.148438 C 181.113281 27.519531 179.976562 26.625 179.050781 25.464844 C 178.351562 24.558594 177.875 23.546875 177.628906 22.429688 C 177.355469 21.3125 177.324219 20.1875 177.53125 19.054688 C 177.710938 18.113281 178.074219 17.25 178.625 16.460938 C 179.214844 15.691406 179.9375 15.078125 180.789062 14.617188 C 181.753906 14.113281 182.769531 13.757812 183.839844 13.558594 C 183.808594 12.230469 183.789062 11.566406 183.753906 10.242188 C 183.777344 10.035156 183.859375 9.855469 184.003906 9.703125 C 184.152344 9.535156 184.335938 9.453125 184.5625 9.464844 C 186.292969 9.347656 187.132812 9.296875 188.875 9.230469 C 189.058594 9.203125 189.222656 9.246094 189.367188 9.359375 C 189.511719 9.472656 189.589844 9.625 189.601562 9.808594 L 189.640625 9.980469 C 189.660156 11.25 189.679688 11.914062 189.699219 13.179688 C 190.851562 13.179688 191.957031 13.253906 193.007812 13.339844 C 194.054688 13.425781 194.871094 13.558594 195.429688 13.625 C 195.601562 13.65625 195.757812 13.722656 195.898438 13.832031 C 196.035156 13.921875 196.140625 14.042969 196.21875 14.1875 Z M 196.214844 14.1875 " fill-opacity="1" fill-rule="nonzero"/></g></svg>