<svg xmlns="http://www.w3.org/2000/svg" xmlns:xlink="http://www.w3.org/1999/xlink" width="500" zoomAndPan="magnify" viewBox="0 0 375 112.499997" height="150" preserveAspectRatio="xMidYMid meet" version="1.0"><defs><clipPath id="1e4489cecb"><path d="M 26.039062 56 L 348.605469 56 L 348.605469 112.003906 L 26.039062 112.003906 Z M 26.039062 56 " clip-rule="nonzero"/></clipPath><clipPath id="23daae5448"><path d="M 167 7 L 214 7 L 214 48 L 167 48 Z M 167 7 " clip-rule="nonzero"/></clipPath><clipPath id="c8988d66a9"><path d="M 175.167969 3.539062 L 216.046875 23.625 L 200.242188 55.792969 L 159.363281 35.707031 Z M 175.167969 3.539062 " clip-rule="nonzero"/></clipPath><clipPath id="1131327e41"><path d="M 175.167969 3.539062 L 216.046875 23.625 L 200.242188 55.792969 L 159.363281 35.707031 Z M 175.167969 3.539062 " clip-rule="nonzero"/></clipPath></defs><g clip-path="url(#1e4489cecb)"><path fill="#04143c" d="M 162.214844 376.511719 C 160.984375 375.964844 158.628906 375.476562 156.980469 375.433594 C 152.554688 375.316406 125.023438 366.640625 119.757812 363.703125 C 117.253906 362.308594 111.179688 358.96875 106.253906 356.277344 C 93.027344 349.058594 75.003906 333.640625 63.414062 319.628906 C 53.503906 307.648438 38.527344 282.195312 36.820312 274.433594 C 36.410156 272.558594 34.582031 266.421875 32.757812 260.804688 C 27.335938 244.066406 25.539062 218.480469 28.15625 195.164062 C 31.035156 169.488281 44.339844 137.382812 59.691406 119.066406 C 62.527344 115.6875 65.851562 111.660156 67.082031 110.121094 C 69.960938 106.523438 77.492188 98.992188 81.089844 96.113281 C 82.628906 94.882812 86.65625 91.570312 90.035156 88.75 C 93.414062 85.933594 97.945312 82.578125 100.097656 81.296875 C 111.605469 74.457031 125.878906 67.148438 130.316406 65.832031 C 160.34375 56.90625 165.734375 55.980469 187.394531 55.992188 C 203.660156 56.003906 219.917969 57.714844 227.121094 60.175781 C 229.585938 61.015625 235.382812 62.8125 240 64.164062 C 248.3125 66.597656 259.652344 71.871094 271.105469 78.628906 C 274.363281 80.550781 277.332031 82.125 277.699219 82.125 C 278.066406 82.125 281.441406 84.777344 285.203125 88.019531 C 288.964844 91.261719 294.449219 95.839844 297.390625 98.191406 C 304.542969 103.914062 321.929688 125.554688 327.191406 135.289062 C 329.519531 139.597656 332.691406 145.386719 334.242188 148.15625 C 337.28125 153.589844 344.585938 175.714844 346.511719 185.328125 C 348.636719 195.917969 348.949219 233.066406 347.011719 244.359375 C 340.15625 284.265625 319.742188 318.359375 286.890625 344.761719 C 278.707031 351.339844 275.460938 353.371094 258.625 362.445312 C 250.558594 366.792969 234.726562 372.183594 221.53125 375.070312 C 212.558594 377.035156 165.917969 378.167969 162.214844 376.515625 Z M 214.015625 358.539062 C 228.71875 351.074219 245.226562 333.816406 255.042969 315.648438 C 257.320312 311.4375 258.910156 307.28125 258.578125 306.417969 C 257.761719 304.285156 195.335938 304.066406 193.214844 306.1875 C 191.765625 307.636719 191.1875 361.988281 192.605469 363.40625 C 194.371094 365.167969 206.289062 362.460938 214.011719 358.539062 Z M 178.441406 335.625 C 178.75 320.847656 178.570312 307.816406 178.046875 306.65625 C 177.207031 304.808594 176.257812 304.636719 170.328125 305.257812 C 166.609375 305.644531 152.558594 305.964844 139.105469 305.964844 C 115.640625 305.964844 114.648438 306.050781 114.648438 308.136719 C 114.648438 309.332031 115.097656 310.585938 115.644531 310.925781 C 116.195312 311.265625 118.015625 314.191406 119.695312 317.425781 C 131.558594 340.296875 158.667969 363.398438 172.851562 362.722656 L 177.886719 362.484375 L 178.445312 335.621094 Z M 253.765625 350.421875 C 256.96875 348.40625 262.019531 345.511719 264.992188 343.988281 C 277.414062 337.628906 307.550781 309.324219 305.480469 305.972656 C 304.414062 304.246094 276.363281 304.496094 274.992188 306.242188 C 274.386719 307.011719 271.253906 312.753906 268.03125 319 C 264.808594 325.246094 258.191406 335.464844 253.324219 341.710938 C 248.460938 347.953125 244.480469 353.292969 244.480469 353.578125 C 244.480469 355.070312 248.613281 353.667969 253.765625 350.421875 Z M 125.699219 348.664062 C 124.855469 347.527344 121.089844 342.550781 117.335938 337.597656 C 113.578125 332.648438 108.355469 324.390625 105.726562 319.242188 C 98.597656 305.28125 99.699219 305.964844 84.257812 305.964844 C 73.113281 305.964844 71 306.234375 71 307.671875 C 71 309.875 90.824219 329.796875 99.445312 336.257812 C 113.828125 347.039062 130.261719 354.808594 125.699219 348.664062 Z M 92.878906 291.328125 C 93.289062 290.664062 92.839844 288.019531 91.878906 285.453125 C 89.039062 277.84375 83.613281 248.066406 82.898438 236.152344 C 82.535156 230.074219 81.660156 224.410156 80.957031 223.5625 C 79.96875 222.371094 75.597656 222.027344 61.632812 222.039062 C 51.703125 222.050781 42.839844 222.527344 41.9375 223.097656 C 37.125 226.140625 44.796875 262.675781 54.035156 280.726562 C 60.242188 292.851562 59.625 292.535156 77.089844 292.535156 C 86.628906 292.535156 92.40625 292.09375 92.878906 291.328125 Z M 178.492188 289.617188 C 179.15625 287.867188 179.480469 273.871094 179.300781 254.644531 L 179.003906 222.582031 L 138.714844 222.3125 C 116.503906 222.164062 97.722656 222.488281 96.859375 223.039062 C 95.546875 223.878906 95.496094 226.339844 96.546875 238.417969 C 98.554688 261.53125 105.128906 288.945312 109.300781 291.589844 C 110.089844 292.089844 125.730469 292.507812 144.058594 292.515625 L 177.382812 292.535156 L 178.488281 289.617188 Z M 266.152344 288.894531 C 272.332031 279.023438 281.050781 225.125 276.878906 222.550781 C 275.238281 221.535156 194.914062 221.898438 193.910156 222.921875 C 192.863281 223.992188 191.367188 284.753906 192.292969 288.453125 L 193.039062 291.414062 L 264.574219 291.414062 L 266.148438 288.898438 Z M 316.847656 288.894531 C 321.375 283.820312 325.164062 275.570312 329.40625 261.550781 C 334.523438 244.636719 337.496094 223.496094 334.980469 221.90625 C 332.46875 220.3125 295.585938 220.667969 293.414062 222.304688 C 291.972656 223.386719 291.296875 226.933594 290.402344 238.097656 C 289.148438 253.8125 285.4375 275.289062 282.972656 281.097656 C 282.113281 283.121094 281.414062 286.269531 281.414062 288.09375 L 281.414062 291.414062 L 298.007812 291.414062 C 313.800781 291.414062 314.707031 291.292969 316.847656 288.894531 Z M 81.472656 207.367188 C 82.207031 206.3125 82.953125 201.753906 83.125 197.230469 C 83.566406 185.574219 89.460938 153.53125 92.117188 148.363281 C 94.269531 144.164062 92.660156 143.683594 76.503906 143.683594 C 62.511719 143.683594 60.703125 143.90625 58.726562 145.882812 C 55.515625 149.09375 51.421875 157.679688 47.984375 168.402344 C 46.324219 173.582031 44.28125 179.96875 43.4375 182.597656 C 41.074219 189.992188 40.132812 205.90625 41.929688 208.070312 C 43.1875 209.585938 46.128906 209.804688 61.765625 209.566406 C 77.625 209.320312 80.3125 209.023438 81.472656 207.367188 Z M 179.5625 177.257812 C 179.871094 160.328125 179.683594 145.851562 179.144531 145.082031 C 178.398438 144.011719 170.0625 143.6875 143.890625 143.699219 C 125.035156 143.707031 109.074219 144.085938 108.414062 144.539062 C 106.355469 145.957031 103.347656 154.957031 100.589844 167.964844 C 97.714844 181.523438 95.0625 204.40625 96.0625 207.011719 C 96.589844 208.382812 102.863281 208.578125 137.839844 208.328125 L 179.003906 208.035156 Z M 276.679688 207.195312 C 279.488281 203.746094 273.753906 164.367188 268.320312 149.839844 L 266.230469 144.242188 L 193.550781 144.242188 L 192.992188 174.824219 C 192.683594 191.644531 192.835938 206.125 193.328125 207 C 194.566406 209.210938 274.886719 209.398438 276.679688 207.195312 Z M 334.285156 207.195312 C 335.917969 205.941406 335.957031 204.710938 334.683594 195.164062 C 332.28125 177.117188 321.40625 147.550781 315.640625 143.363281 C 313.757812 141.996094 282.722656 143.042969 281.242188 144.523438 C 280.296875 145.464844 280.457031 146.808594 281.871094 149.785156 C 282.914062 151.980469 284.492188 157.929688 285.378906 163 C 286.265625 168.070312 287.515625 173.984375 288.148438 176.136719 C 288.785156 178.292969 289.625 185.765625 290.011719 192.742188 C 290.492188 201.390625 291.222656 205.933594 292.300781 207.011719 C 294.449219 209.160156 331.519531 209.324219 334.285156 207.195312 Z M 96.96875 129.972656 C 97.945312 129.203125 101.429688 123.285156 104.714844 116.820312 C 108.003906 110.359375 114.378906 100.335938 118.886719 94.554688 C 123.558594 88.554688 126.660156 83.617188 126.101562 83.058594 C 124.828125 81.78125 106.316406 92.445312 97.449219 99.5625 C 84.5 109.953125 68.257812 127.316406 69.191406 129.761719 C 70.019531 131.914062 94.273438 132.097656 96.96875 129.972656 Z M 179.175781 128.988281 C 180.367188 128.003906 180.683594 121.769531 180.683594 99.359375 L 180.683594 70.976562 L 177.886719 70.273438 C 174.203125 69.351562 171.09375 70.207031 161.070312 74.898438 C 150.738281 79.738281 138.117188 90.554688 129.34375 102.089844 C 121.164062 112.847656 112.496094 128.921875 114.28125 130.023438 C 116.449219 131.367188 177.484375 130.394531 179.175781 128.988281 Z M 259.492188 129.28125 C 260.410156 127.800781 250.886719 110.828125 244.023438 101.710938 C 235.382812 90.230469 224.273438 80.679688 213.457031 75.433594 C 203.035156 70.378906 199.621094 69.335938 196.609375 70.292969 C 194.601562 70.929688 194.417969 72.738281 193.703125 99.066406 C 193.144531 119.539062 193.285156 127.578125 194.222656 128.707031 C 195.257812 129.953125 201.605469 130.25 227.199219 130.25 C 244.628906 130.25 259.164062 129.816406 259.492188 129.28125 Z M 306.503906 129.277344 C 307.363281 127.882812 294.265625 112.898438 285.792969 105.585938 C 274.640625 95.960938 270.300781 92.847656 261.484375 88.15625 L 249.734375 81.902344 C 247.765625 80.851562 245.792969 79.972656 245.351562 79.941406 C 244.046875 79.855469 248.457031 86.589844 255.367188 95.25 C 258.917969 99.699219 264.84375 109.128906 268.539062 116.203125 C 272.230469 123.277344 276.007812 129.273438 276.933594 129.53125 C 280.261719 130.449219 305.914062 130.230469 306.503906 129.277344 Z M 306.503906 129.277344 " fill-opacity="1" fill-rule="nonzero"/></g><g clip-path="url(#23daae5448)"><g clip-path="url(#c8988d66a9)"><g clip-path="url(#1131327e41)"><path fill="#04143c" d="M 213.605469 25.453125 C 213.714844 27.101562 212.996094 29.136719 200.855469 29.949219 C 200.511719 29.972656 200.160156 29.996094 199.804688 30.015625 L 186.058594 46.992188 L 182.039062 47.261719 L 189.925781 30.34375 C 183.59375 30.40625 181.007812 29.953125 177.148438 29.433594 L 171.761719 36.851562 L 168.191406 37.089844 L 171.492188 28.335938 L 167.054688 20.101562 L 170.621094 19.863281 L 176.859375 26.398438 C 180.59375 25.367188 183.113281 24.566406 189.421875 23.777344 L 179.421875 8.171875 L 183.441406 7.902344 L 199.210938 22.785156 C 199.605469 22.753906 199.992188 22.730469 200.371094 22.703125 C 212.511719 21.890625 213.496094 23.8125 213.605469 25.453125 Z M 213.605469 25.453125 " fill-opacity="1" fill-rule="evenodd"/></g></g></g></svg>