<svg xmlns="http://www.w3.org/2000/svg" xmlns:xlink="http://www.w3.org/1999/xlink" width="500" zoomAndPan="magnify" viewBox="0 0 375 112.499997" height="150" preserveAspectRatio="xMidYMid meet" version="1.0"><defs><clipPath id="f18766edeb"><path d="M 26.039062 45.5 L 348.605469 45.5 L 348.605469 111.957031 L 26.039062 111.957031 Z M 26.039062 45.5 " clip-rule="nonzero"/></clipPath><clipPath id="c36f11ffae"><path d="M 149.496094 2.191406 L 224.164062 2.191406 L 224.164062 41 L 149.496094 41 Z M 149.496094 2.191406 " clip-rule="nonzero"/></clipPath><clipPath id="779be1a291"><path d="M 180 23 L 196 23 L 196 46.996094 L 180 46.996094 Z M 180 23 " clip-rule="nonzero"/></clipPath></defs><g clip-path="url(#f18766edeb)"><path fill="#04143c" d="M 162.214844 366.011719 C 160.984375 365.460938 158.628906 364.976562 156.980469 364.933594 C 152.554688 364.816406 125.023438 356.140625 119.757812 353.203125 C 117.253906 351.808594 111.179688 348.464844 106.253906 345.777344 C 93.027344 338.558594 75.003906 323.140625 63.414062 309.128906 C 53.503906 297.148438 38.527344 271.695312 36.820312 263.933594 C 36.410156 262.058594 34.582031 255.921875 32.757812 250.304688 C 27.335938 233.566406 25.539062 207.980469 28.15625 184.664062 C 31.035156 158.988281 44.339844 126.882812 59.691406 108.566406 C 62.527344 105.1875 65.851562 101.160156 67.082031 99.621094 C 69.960938 96.023438 77.492188 88.492188 81.089844 85.613281 C 82.628906 84.382812 86.65625 81.070312 90.035156 78.25 C 93.414062 75.433594 97.945312 72.078125 100.097656 70.796875 C 111.605469 63.957031 125.878906 56.648438 130.316406 55.332031 C 160.34375 46.40625 165.734375 45.476562 187.394531 45.492188 C 203.660156 45.503906 219.917969 47.214844 227.121094 49.675781 C 229.585938 50.515625 235.382812 52.3125 240 53.664062 C 248.3125 56.097656 259.652344 61.371094 271.105469 68.128906 C 274.363281 70.050781 277.332031 71.621094 277.699219 71.621094 C 278.066406 71.621094 281.441406 74.277344 285.203125 77.519531 C 288.964844 80.761719 294.449219 85.335938 297.390625 87.691406 C 304.542969 93.414062 321.929688 115.054688 327.191406 124.789062 C 329.519531 129.09375 332.691406 134.886719 334.242188 137.65625 C 337.28125 143.089844 344.585938 165.214844 346.511719 174.828125 C 348.636719 185.417969 348.949219 222.566406 347.011719 233.859375 C 340.15625 273.765625 319.742188 307.859375 286.890625 334.261719 C 278.707031 340.839844 275.460938 342.871094 258.625 351.945312 C 250.558594 356.292969 234.726562 361.683594 221.53125 364.570312 C 212.558594 366.535156 165.917969 367.667969 162.214844 366.011719 Z M 214.015625 348.039062 C 228.71875 340.574219 245.226562 323.316406 255.042969 305.148438 C 257.320312 300.933594 258.910156 296.78125 258.578125 295.917969 C 257.761719 293.785156 195.335938 293.566406 193.214844 295.6875 C 191.765625 297.136719 191.1875 351.488281 192.605469 352.902344 C 194.371094 354.667969 206.289062 351.960938 214.011719 348.039062 Z M 178.441406 325.121094 C 178.75 310.347656 178.570312 297.316406 178.046875 296.15625 C 177.207031 294.308594 176.257812 294.136719 170.328125 294.757812 C 166.609375 295.144531 152.558594 295.464844 139.105469 295.464844 C 115.640625 295.464844 114.648438 295.550781 114.648438 297.636719 C 114.648438 298.832031 115.097656 300.085938 115.644531 300.425781 C 116.195312 300.761719 118.015625 303.6875 119.695312 306.925781 C 131.558594 329.796875 158.667969 352.898438 172.851562 352.222656 L 177.886719 351.984375 L 178.445312 325.121094 Z M 253.765625 339.921875 C 256.96875 337.90625 262.019531 335.011719 264.992188 333.488281 C 277.414062 327.125 307.550781 298.824219 305.480469 295.472656 C 304.414062 293.746094 276.363281 293.996094 274.992188 295.742188 C 274.386719 296.511719 271.253906 302.253906 268.03125 308.5 C 264.808594 314.746094 258.191406 324.964844 253.324219 331.210938 C 248.460938 337.453125 244.480469 342.792969 244.480469 343.074219 C 244.480469 344.570312 248.613281 343.167969 253.765625 339.921875 Z M 125.699219 338.164062 C 124.855469 337.027344 121.089844 332.050781 117.335938 327.097656 C 113.578125 322.148438 108.355469 313.886719 105.726562 308.742188 C 98.597656 294.78125 99.699219 295.464844 84.257812 295.464844 C 73.113281 295.464844 71 295.734375 71 297.171875 C 71 299.375 90.824219 319.296875 99.445312 325.757812 C 113.828125 336.539062 130.261719 344.304688 125.699219 338.164062 Z M 92.878906 280.828125 C 93.289062 280.164062 92.839844 277.519531 91.878906 274.953125 C 89.039062 267.34375 83.613281 237.566406 82.898438 225.652344 C 82.535156 219.574219 81.660156 213.90625 80.957031 213.0625 C 79.96875 211.871094 75.597656 211.527344 61.632812 211.539062 C 51.703125 211.550781 42.839844 212.023438 41.9375 212.597656 C 37.125 215.640625 44.796875 252.175781 54.035156 270.222656 C 60.242188 282.351562 59.625 282.035156 77.089844 282.035156 C 86.628906 282.035156 92.40625 281.59375 92.878906 280.828125 Z M 178.492188 279.117188 C 179.15625 277.367188 179.480469 263.371094 179.300781 244.140625 L 179.003906 212.082031 L 138.714844 211.8125 C 116.503906 211.664062 97.722656 211.988281 96.859375 212.539062 C 95.546875 213.378906 95.496094 215.839844 96.546875 227.917969 C 98.554688 251.03125 105.128906 278.445312 109.300781 281.089844 C 110.089844 281.589844 125.730469 282.007812 144.058594 282.015625 L 177.382812 282.035156 L 178.488281 279.117188 Z M 266.152344 278.394531 C 272.332031 268.523438 281.050781 214.625 276.878906 212.050781 C 275.238281 211.035156 194.914062 211.394531 193.910156 212.421875 C 192.863281 213.492188 191.367188 274.253906 192.292969 277.953125 L 193.039062 280.914062 L 264.574219 280.914062 L 266.148438 278.398438 Z M 316.847656 278.394531 C 321.375 273.320312 325.164062 265.070312 329.40625 251.050781 C 334.523438 234.136719 337.496094 212.996094 334.980469 211.40625 C 332.46875 209.8125 295.585938 210.167969 293.414062 211.804688 C 291.972656 212.886719 291.296875 216.433594 290.402344 227.597656 C 289.148438 243.3125 285.4375 264.789062 282.972656 270.597656 C 282.113281 272.621094 281.414062 275.769531 281.414062 277.59375 L 281.414062 280.914062 L 298.007812 280.914062 C 313.800781 280.914062 314.707031 280.792969 316.847656 278.394531 Z M 81.472656 196.867188 C 82.207031 195.8125 82.953125 191.253906 83.125 186.730469 C 83.566406 175.074219 89.460938 143.03125 92.117188 137.859375 C 94.269531 133.664062 92.660156 133.179688 76.503906 133.179688 C 62.511719 133.179688 60.703125 133.40625 58.726562 135.382812 C 55.515625 138.59375 51.421875 147.179688 47.984375 157.902344 C 46.324219 163.082031 44.28125 169.46875 43.4375 172.097656 C 41.074219 179.492188 40.132812 195.40625 41.929688 197.570312 C 43.1875 199.085938 46.128906 199.304688 61.765625 199.066406 C 77.625 198.820312 80.3125 198.519531 81.472656 196.867188 Z M 179.5625 166.757812 C 179.871094 149.828125 179.683594 135.351562 179.144531 134.582031 C 178.398438 133.511719 170.0625 133.183594 143.890625 133.199219 C 125.035156 133.207031 109.074219 133.585938 108.414062 134.039062 C 106.355469 135.453125 103.347656 144.457031 100.589844 157.464844 C 97.714844 171.023438 95.0625 193.90625 96.0625 196.511719 C 96.589844 197.878906 102.863281 198.078125 137.839844 197.828125 L 179.003906 197.535156 Z M 276.679688 196.695312 C 279.488281 193.246094 273.753906 153.867188 268.320312 139.339844 L 266.230469 133.742188 L 193.550781 133.742188 L 192.992188 164.324219 C 192.683594 181.144531 192.835938 195.625 193.328125 196.5 C 194.566406 198.710938 274.886719 198.898438 276.679688 196.695312 Z M 334.285156 196.695312 C 335.917969 195.441406 335.957031 194.210938 334.683594 184.664062 C 332.28125 166.617188 321.40625 137.050781 315.640625 132.863281 C 313.757812 131.496094 282.722656 132.542969 281.242188 134.019531 C 280.296875 134.964844 280.457031 136.308594 281.871094 139.285156 C 282.914062 141.480469 284.492188 147.425781 285.378906 152.5 C 286.265625 157.570312 287.515625 163.484375 288.148438 165.636719 C 288.785156 167.792969 289.625 175.265625 290.011719 182.242188 C 290.492188 190.890625 291.222656 195.433594 292.300781 196.511719 C 294.449219 198.660156 331.519531 198.824219 334.285156 196.695312 Z M 96.96875 119.472656 C 97.945312 118.703125 101.429688 112.785156 104.714844 106.320312 C 108.003906 99.859375 114.378906 89.835938 118.886719 84.054688 C 123.558594 78.054688 126.660156 73.117188 126.101562 72.558594 C 124.828125 71.28125 106.316406 81.945312 97.449219 89.0625 C 84.5 99.453125 68.257812 116.816406 69.191406 119.261719 C 70.019531 121.414062 94.273438 121.597656 96.96875 119.472656 Z M 179.175781 118.488281 C 180.367188 117.503906 180.683594 111.269531 180.683594 88.859375 L 180.683594 60.476562 L 177.886719 59.773438 C 174.203125 58.851562 171.09375 59.707031 161.070312 64.398438 C 150.738281 69.238281 138.117188 80.054688 129.34375 91.589844 C 121.164062 102.347656 112.496094 118.421875 114.28125 119.523438 C 116.449219 120.867188 177.484375 119.894531 179.175781 118.488281 Z M 259.492188 118.78125 C 260.410156 117.300781 250.886719 100.328125 244.023438 91.210938 C 235.382812 79.730469 224.273438 70.179688 213.457031 64.933594 C 203.035156 59.878906 199.621094 58.835938 196.609375 59.792969 C 194.601562 60.429688 194.417969 62.238281 193.703125 88.566406 C 193.144531 109.039062 193.285156 117.078125 194.222656 118.207031 C 195.257812 119.453125 201.605469 119.75 227.199219 119.75 C 244.628906 119.75 259.164062 119.3125 259.492188 118.78125 Z M 306.503906 118.777344 C 307.363281 117.382812 294.265625 102.398438 285.792969 95.085938 C 274.640625 85.460938 270.300781 82.347656 261.484375 77.65625 L 249.734375 71.398438 C 247.765625 70.351562 245.792969 69.472656 245.351562 69.441406 C 244.046875 69.355469 248.457031 76.089844 255.367188 84.75 C 258.917969 89.199219 264.84375 98.628906 268.539062 105.703125 C 272.230469 112.777344 276.007812 118.773438 276.933594 119.027344 C 280.261719 119.949219 305.914062 119.730469 306.503906 118.777344 Z M 306.503906 118.777344 " fill-opacity="1" fill-rule="nonzero"/></g><g clip-path="url(#c36f11ffae)"><path fill="#04143c" d="M 224.015625 5.9375 L 223.53125 6.398438 L 223.378906 6.539062 C 222.667969 7.183594 222.007812 7.875 221.394531 8.613281 C 220.148438 10.089844 219.125 11.707031 218.332031 13.46875 C 217.644531 15.027344 217.097656 16.625 216.574219 18.1875 C 216.050781 19.75 215.488281 21.402344 214.796875 22.921875 C 213.558594 25.683594 211.769531 28.027344 209.441406 29.957031 C 206.441406 32.394531 201.132812 32.453125 198.351562 30.070312 C 197.628906 29.449219 197.09375 28.699219 196.742188 27.8125 C 196.640625 27.5625 196.550781 27.292969 196.453125 26.945312 C 196.277344 26.257812 196.007812 25.609375 195.640625 25 C 195.777344 24.566406 195.933594 24.144531 196.121094 23.730469 L 196.121094 23.699219 C 196.335938 23.183594 196.582031 22.699219 196.851562 22.210938 C 197.121094 21.722656 197.390625 21.246094 197.707031 20.777344 C 198.023438 20.3125 198.335938 19.847656 198.671875 19.398438 C 200.0625 17.59375 201.644531 15.976562 203.417969 14.546875 C 205.230469 13.136719 207.15625 11.90625 209.203125 10.863281 C 209.707031 10.585938 210.226562 10.339844 210.757812 10.117188 L 212.316406 9.410156 C 213.390625 8.992188 214.488281 8.613281 215.578125 8.214844 C 214.464844 8.535156 213.339844 8.839844 212.226562 9.179688 L 210.59375 9.777344 C 210.039062 9.960938 209.5 10.175781 208.96875 10.417969 C 207.890625 10.871094 206.835938 11.382812 205.8125 11.949219 C 204.777344 12.503906 203.773438 13.113281 202.804688 13.78125 C 200.847656 15.136719 199.082031 16.703125 197.503906 18.488281 C 197.105469 18.929688 196.726562 19.394531 196.375 19.875 C 196 20.347656 195.664062 20.84375 195.335938 21.347656 C 194.863281 22.085938 194.4375 22.847656 194.0625 23.636719 C 193.5625 23.367188 193.042969 23.140625 192.507812 22.957031 L 192.070312 22.804688 C 191.433594 22.582031 190.871094 22.242188 190.382812 21.78125 C 189.894531 21.320312 189.523438 20.777344 189.265625 20.15625 C 188.488281 18.25 188.792969 15.441406 190.082031 12.636719 C 192.785156 6.75 198.550781 4.289062 202.898438 3.292969 C 204.144531 2.992188 205.402344 2.792969 206.679688 2.691406 C 209.660156 2.445312 212.625 2.601562 215.566406 3.148438 C 218.507812 3.699219 221.324219 4.628906 224.015625 5.9375 Z M 180.15625 18.394531 C 175.695312 14.53125 169.988281 14.65625 165.984375 15.445312 C 164.839844 15.675781 163.71875 15.992188 162.625 16.398438 C 160.070312 17.308594 157.679688 18.542969 155.453125 20.097656 C 153.226562 21.648438 151.242188 23.464844 149.5 25.550781 L 149.980469 25.714844 L 150.144531 25.773438 C 150.992188 26.035156 151.816406 26.359375 152.617188 26.742188 C 154.222656 27.503906 155.695312 28.472656 157.027344 29.644531 C 158.191406 30.683594 159.257812 31.816406 160.285156 32.921875 C 161.320312 34.066406 162.410156 35.15625 163.554688 36.191406 C 165.621094 38.019531 167.988281 39.292969 170.652344 40.015625 C 174.039062 40.910156 178.4375 38.980469 179.855469 35.960938 C 180.226562 35.191406 180.398438 34.375 180.375 33.519531 C 180.375 33.273438 180.328125 33 180.285156 32.691406 C 180.175781 32.054688 180.15625 31.417969 180.222656 30.777344 C 179.949219 30.472656 179.660156 30.183594 179.355469 29.910156 L 179.257812 29.828125 C 178.914062 29.519531 178.5625 29.222656 178.1875 28.945312 C 177.816406 28.664062 177.367188 28.34375 176.933594 28.070312 C 176.496094 27.800781 176.058594 27.554688 175.609375 27.289062 C 173.773438 26.304688 171.847656 25.546875 169.832031 25.023438 C 168.816406 24.765625 167.789062 24.5625 166.753906 24.417969 C 165.71875 24.257812 164.679688 24.152344 163.636719 24.101562 C 163.117188 24.046875 162.597656 24.0625 162.082031 24.0625 L 160.402344 24.0625 C 159.363281 24.121094 158.289062 24.214844 157.230469 24.292969 C 158.269531 24.136719 159.308594 23.957031 160.382812 23.820312 L 161.960938 23.695312 C 162.492188 23.640625 163.027344 23.613281 163.566406 23.613281 C 164.636719 23.578125 165.707031 23.605469 166.777344 23.683594 C 167.855469 23.753906 168.925781 23.882812 169.988281 24.0625 C 172.140625 24.453125 174.214844 25.089844 176.214844 25.976562 C 176.722656 26.191406 177.214844 26.433594 177.695312 26.703125 C 178.183594 26.949219 178.65625 27.21875 179.125 27.539062 C 179.773438 27.957031 180.394531 28.417969 180.992188 28.914062 C 181.3125 28.519531 181.65625 28.148438 182.03125 27.800781 L 182.34375 27.492188 C 182.78125 27.082031 183.117188 26.597656 183.347656 26.042969 C 183.582031 25.488281 183.6875 24.910156 183.664062 24.308594 C 183.582031 22.449219 182.273438 20.238281 180.15625 18.402344 Z M 180.15625 18.394531 " fill-opacity="1" fill-rule="nonzero"/></g><g clip-path="url(#779be1a291)"><path fill="#04143c" d="M 195.308594 25.300781 C 195.261719 25.375 195.203125 25.441406 195.136719 25.503906 C 194.894531 25.730469 194.664062 25.972656 194.449219 26.222656 C 192.714844 28.238281 188.347656 34.503906 189.257812 45.949219 L 189.257812 45.980469 C 189.257812 45.980469 189.257812 46.039062 189.257812 46.070312 C 189.257812 46.101562 189.257812 46.132812 189.257812 46.164062 C 189.257812 46.195312 189.257812 46.226562 189.257812 46.257812 C 189.242188 46.320312 189.222656 46.378906 189.195312 46.4375 C 189.183594 46.46875 189.167969 46.496094 189.152344 46.523438 C 189.136719 46.546875 189.121094 46.574219 189.101562 46.59375 L 189.042969 46.675781 L 188.980469 46.734375 L 188.902344 46.808594 L 188.835938 46.847656 L 188.746094 46.90625 L 188.660156 46.9375 L 188.566406 46.972656 L 188.304688 46.972656 C 188.246094 46.980469 188.183594 46.980469 188.125 46.972656 C 188.066406 46.960938 188.007812 46.945312 187.953125 46.925781 C 187.84375 46.882812 187.75 46.824219 187.664062 46.746094 C 187.578125 46.667969 187.511719 46.578125 187.460938 46.476562 C 187.410156 46.371094 187.378906 46.257812 187.367188 46.144531 L 187.367188 46.058594 C 187.332031 45.617188 187.304688 45.191406 187.285156 44.765625 C 187.066406 42.550781 186.53125 40.414062 185.675781 38.359375 C 184.816406 36.304688 183.679688 34.417969 182.257812 32.703125 C 181.71875 32.027344 181.125 31.40625 180.476562 30.832031 L 180.453125 30.832031 C 180.347656 30.753906 180.265625 30.65625 180.199219 30.539062 C 180.136719 30.425781 180.097656 30.304688 180.082031 30.175781 C 180.0625 30.042969 180.074219 29.914062 180.109375 29.789062 C 180.144531 29.664062 180.203125 29.546875 180.285156 29.445312 C 180.363281 29.339844 180.460938 29.257812 180.578125 29.195312 C 180.691406 29.128906 180.8125 29.089844 180.941406 29.074219 C 181.074219 29.058594 181.203125 29.066406 181.328125 29.101562 C 181.453125 29.136719 181.570312 29.195312 181.671875 29.277344 C 181.941406 29.496094 182.199219 29.734375 182.445312 29.980469 C 184.609375 32.265625 186.296875 34.863281 187.503906 37.769531 C 188.507812 30.8125 191.386719 26.695312 192.902344 24.960938 C 193.296875 24.511719 193.589844 24.21875 193.742188 24.078125 L 193.839844 23.992188 C 194.023438 23.828125 194.242188 23.742188 194.488281 23.742188 C 194.734375 23.742188 194.953125 23.824219 195.136719 23.988281 C 195.320312 24.152344 195.429688 24.355469 195.460938 24.601562 C 195.488281 24.847656 195.433594 25.070312 195.292969 25.273438 Z M 195.308594 25.300781 " fill-opacity="1" fill-rule="nonzero"/></g></svg>