<svg xmlns="http://www.w3.org/2000/svg" xmlns:xlink="http://www.w3.org/1999/xlink" width="300" zoomAndPan="magnify" viewBox="0 0 224.87999 225" height="300" preserveAspectRatio="xMidYMid meet" version="1.0"><defs><clipPath id="b4a1dabee0"><path d="M 40 73 L 173 73 L 173 224.9375 L 40 224.9375 Z M 40 73 " clip-rule="nonzero"/></clipPath><clipPath id="6c5c0e8244"><path d="M 22.488281 109 L 99 109 L 99 160 L 22.488281 160 Z M 22.488281 109 " clip-rule="nonzero"/></clipPath></defs><g clip-path="url(#b4a1dabee0)"><path fill="#04143c" d="M 105.917969 184.78125 C 105.917969 184.78125 105.488281 184.78125 105.488281 184.78125 C 104.621094 173.542969 106.785156 162.304688 109.378906 150.632812 C 114.132812 148.902344 118.886719 146.742188 122.777344 144.578125 C 122.34375 144.148438 121.480469 143.28125 121.046875 142.851562 C 121.046875 142.851562 120.617188 141.984375 120.617188 141.121094 C 117.15625 142.417969 113.699219 144.148438 111.105469 145.011719 C 116.726562 121.234375 122.777344 97.027344 106.785156 73.683594 L 99.867188 78.441406 C 116.292969 102.214844 105.917969 128.152344 99.867188 154.953125 C 98.136719 153.226562 96.839844 151.496094 96.410156 151.0625 C 95.976562 151.496094 95.976562 151.929688 95.542969 152.792969 C 95.542969 152.792969 95.113281 153.226562 94.246094 153.65625 C 96.839844 156.683594 98.136719 158.414062 99.003906 159.277344 C 97.273438 167.921875 96.410156 176.570312 97.273438 185.214844 C 64.851562 188.238281 40.210938 205.964844 40.210938 227.144531 L 172.058594 227.144531 C 172.058594 203.800781 142.230469 184.78125 105.917969 184.78125 Z M 105.917969 184.78125 " fill-opacity="1" fill-rule="nonzero"/></g><path fill="#04143c" d="M 184.160156 58.554688 C 184.160156 58.554688 161.683594 85.355469 137.90625 97.460938 C 113.699219 109.566406 118.886719 134.203125 120.617188 141.121094 C 149.148438 128.152344 163.414062 111.726562 174.652344 91.410156 C 163.84375 115.183594 146.554688 132.476562 123.210938 144.578125 C 156.496094 175.273438 219.609375 129.449219 184.160156 58.554688 Z M 184.160156 58.554688 " fill-opacity="1" fill-rule="nonzero"/><g clip-path="url(#6c5c0e8244)"><path fill="#04143c" d="M 93.816406 153.65625 C 78.253906 136.796875 63.988281 130.3125 47.558594 127.289062 C 66.582031 129.449219 82.574219 137.664062 95.976562 151.496094 C 109.808594 121.234375 63.554688 87.519531 22.488281 127.71875 C 22.488281 127.71875 45.832031 137.230469 59.664062 151.496094 C 73.496094 165.328125 89.492188 156.683594 93.816406 153.65625 Z M 93.816406 153.65625 " fill-opacity="1" fill-rule="nonzero"/></g><path fill="#04143c" d="M 62.691406 66.769531 C 70.039062 79.304688 94.679688 78.007812 100.300781 77.574219 C 88.628906 56.824219 73.496094 38.238281 51.019531 28.296875 C 72.632812 34.347656 92.949219 55.097656 105.488281 73.683594 C 121.480469 54.230469 86.464844 0.195312 28.109375 26.566406 C 28.109375 26.566406 47.128906 39.96875 62.691406 66.769531 Z M 62.691406 66.769531 " fill-opacity="1" fill-rule="nonzero"/></svg>