<svg xmlns="http://www.w3.org/2000/svg" xmlns:xlink="http://www.w3.org/1999/xlink" width="300" zoomAndPan="magnify" viewBox="0 0 224.87999 225" height="300" preserveAspectRatio="xMidYMid meet" version="1.0"><defs><clipPath id="0c837a591e"><path d="M 34.714844 0.0585938 L 189.882812 0.0585938 L 189.882812 224.9375 L 34.714844 224.9375 Z M 34.714844 0.0585938 " clip-rule="nonzero"/></clipPath></defs><g clip-path="url(#0c837a591e)"><path fill="#04143c" d="M 176.6875 103.492188 L 117.214844 2.796875 C 116.21875 1.109375 114.402344 0.0703125 112.441406 0.0703125 C 110.476562 0.0703125 108.660156 1.109375 107.664062 2.796875 L 48.183594 103.507812 C 39.382812 116.421875 34.730469 131.53125 34.730469 147.21875 C 34.730469 190.066406 69.589844 224.929688 112.441406 224.929688 C 155.289062 224.929688 190.148438 190.066406 190.148438 147.21875 C 190.148438 131.519531 185.492188 116.402344 176.6875 103.492188 Z M 112.441406 213.835938 C 75.707031 213.835938 45.824219 183.949219 45.824219 147.21875 C 45.824219 133.707031 49.84375 120.703125 57.4375 109.625 C 57.515625 109.511719 57.589844 109.394531 57.660156 109.277344 L 112.441406 16.527344 L 167.21875 109.277344 C 167.277344 109.378906 167.339844 109.476562 167.40625 109.570312 L 167.414062 109.585938 C 167.417969 109.589844 167.417969 109.589844 167.421875 109.59375 C 167.425781 109.597656 167.425781 109.601562 167.429688 109.609375 C 175.035156 120.703125 179.054688 133.707031 179.054688 147.21875 C 179.054688 183.949219 149.171875 213.835938 112.441406 213.835938 Z M 112.441406 213.835938 " fill-opacity="1" fill-rule="nonzero"/></g><path fill="#04143c" d="M 104.703125 186.214844 C 87.535156 186.214844 73.5625 172.242188 73.5625 155.074219 C 73.5625 152.011719 71.082031 149.527344 68.015625 149.527344 C 64.953125 149.527344 62.46875 152.011719 62.46875 155.074219 C 62.46875 178.363281 81.417969 197.308594 104.703125 197.308594 C 107.769531 197.308594 110.25 194.824219 110.25 191.761719 C 110.25 188.699219 107.769531 186.214844 104.703125 186.214844 Z M 104.703125 186.214844 " fill-opacity="1" fill-rule="nonzero"/></svg>